/* XPM */
static char *_3129a73c6974f9eeb3fa43053789e56AYvckVWs1yMDmbs8[] = {
/* columns rows colors chars-per-pixel */
"25 25 14 1 ",
"  c None",
". c #5E4800",
"X c #664E00",
"o c #6E5400",
"O c #785C00",
"+ c #856800",
"@ c #876800",
"# c #8A6A00",
"$ c #8D6C00",
"% c #957200",
"& c #9E7900",
"* c #A07B00",
"= c #A37D00",
"- c #A17E00",
/* pixels */
"           ..            ",
"        ===oX.           ",
"        ===oX.           ",
"      ==@@ ..            ",
"    =*@@          ===    ",
"    *&@@          =&=    ",
"   =@@         ===@@@=   ",
" ==@          =@@@   @== ",
"=@@         ==@       == ",
"=@@         ==@       == ",
"=          =%@        @@=",
"@===    ===@@           =",
"@%%%=---%%%@            =",
" @@@====@@@             =",
"    @@@@              ==@",
"                      == ",
"                      == ",
"                     =@@ ",
"                   ==@   ",
"                 O=$#    ",
"                 O=#@    ",
"               OO=O      ",
"              O==O       ",
"              O==O       ",
"              OOO        "
};
