/* XPM */
static char *result[] = {
/* columns rows colors chars-per-pixel */
"25 25 3 1 ",
"  c black",
". c #F3DC00",
"X c None",
/* pixels */
"XXXXXXXXX.......XXXXXXXXX",
"XXXXXXX...........XXXXXXX",
"XXXXX...............XXXXX",
"XXXX.................XXXX",
"XXX...................XXX",
"XX.....................XX",
"XX.....................XX",
"X.......................X",
"X.........     .........X",
"........       ..........",
"........  ...............",
"........  ...............",
"........  ...............",
"........  ...............",
"........  ...............",
"........  ...............",
"X.......  ..............X",
"X.......       .........X",
"XX........     ........XX",
"XX.....................XX",
"XXX...................XXX",
"XXXX.................XXXX",
"XXXXX...............XXXXX",
"XXXXXXX...........XXXXXXX",
"XXXXXXXXX.......XXXXXXXXX"
};
