/* XPM */
static char *_8ade225e5c24a5eff48bdacf5922bb8hu452BGnKD0L9tMa[] = {
/* columns rows colors chars-per-pixel */
"25 25 2 1 ",
"  c None",
". c #D50000",
/* pixels */
"                         ",
"                         ",
"                         ",
"                         ",
"                         ",
"                         ",
"                         ",
"                         ",
"                         ",
" .....     ...         . ",
"   .        .          . ",
"   .        .          . ",
"   .        .          . ",
"   .        .          . ",
"   .        .      .   . ",
"   .       ...      ...  ",
"                         ",
"                         ",
"                         ",
"                         ",
"                         ",
"                         ",
"                         ",
"                         ",
"                         "
};
