/* XPM */
static char *_4db79e0cc1245e8906b61aa93808dbdM0puWBGjxfT1eNiz[] = {
/* columns rows colors chars-per-pixel */
"25 25 16 1 ",
"  c #2F2E2C",
". c #312C28",
"X c #46453E",
"o c #514D43",
"O c #504E43",
"+ c #514E45",
"@ c #504F45",
"# c #504D46",
"$ c #5E5C50",
"% c #706957",
"& c #716A57",
"* c #726B59",
"= c #726C5A",
"- c #736C5A",
"; c #8C8A73",
": c #8C8974",
/* pixels */
";;;;;.:;;;;;$*;;:; &;;;; ",
";+***.+==+++$++**+=*=+++ ",
";****o**=**++**********+ ",
"******+**+++$+*********+ ",
";********+++$**********+ ",
";+******%**+$+*********+ ",
";*********++$+ *******++ ",
"**********++  ********++ ",
";==&&*=&=*&+o**********+ ",
";=o++**++*++$+*****+***+ ",
";o+++o=++++ $+***+++**+  ",
";++++++$+++ $++++++++++  ",
"$$o$$$$ $$$$X$$o$$$$$$$$ ",
";+***o+**+++$+++***O*+++ ",
";+********++$+*********+ ",
";*********++$**********+ ",
"=**********+++*********+ ",
";**********+$+*********+ ",
";+*********+$**********+ ",
";**********+O*********++ ",
".**********+o**********+ ",
";*********++$***#******+ ",
":+*******+++$O== ******+ ",
";+++++++++  $++++ +++++  ",
"                         "
};
