/* XPM */
static char *_2bd72c365934b08c1349bc0a5431439yO3WDeyvCXLdQbai[] = {
/* columns rows colors chars-per-pixel */
"25 25 2 1 ",
"  c black",
". c white",
/* pixels */
"                         ",
" ....................... ",
" ....................... ",
" ....................... ",
" ....................... ",
" ....................... ",
" ....................... ",
" ....................... ",
" ....................... ",
" ....................... ",
" ....................... ",
" ....................... ",
" ....................... ",
" ....................... ",
" ....................... ",
" ....................... ",
" ....................... ",
" ....................... ",
" ....................... ",
" ....................... ",
" ....................... ",
" ....................... ",
" ....................... ",
" ....................... ",
"                         "
};
