/* XPM */
static char *bdb3617799364c4bcdb8965574765a8cDN8HL2809sErKNcs[] = {
/* columns rows colors chars-per-pixel */
"25 25 224 2 ",
"   c #5E3548",
".  c #6E3B4E",
"X  c #64384A",
"o  c #7B3F4E",
"O  c #633F52",
"+  c #683E52",
"@  c #753F55",
"#  c #5F4755",
"$  c #6B414E",
"%  c #6E4355",
"&  c #6A4B54",
"*  c #6B495A",
"=  c #754155",
"-  c #754A5B",
";  c #754859",
":  c #6D515C",
">  c #79585B",
",  c #735563",
"<  c #7A5164",
"1  c #7F5A6B",
"2  c #785D65",
"3  c #7E636C",
"4  c #95384D",
"5  c #85414C",
"6  c #884758",
"7  c #984656",
"8  c #8D5D51",
"9  c #A44655",
"0  c #AC4656",
"q  c #A74958",
"w  c #B44A5B",
"e  c #BB4B5C",
"r  c #AA505C",
"t  c #8E4862",
"y  c #924A62",
"u  c #9B4B65",
"i  c #8D5965",
"p  c #835A64",
"a  c #985E68",
"s  c #9A5E77",
"d  c #AB4862",
"f  c #AC4E68",
"g  c #A74B64",
"h  c #B24A65",
"j  c #B84D67",
"k  c #A8566A",
"l  c #B3516D",
"z  c #B85268",
"x  c #B25D7A",
"c  c #896B77",
"v  c #986879",
"b  c #86707D",
"n  c #967D79",
"m  c #A16C68",
"M  c #A36674",
"N  c #A76C79",
"B  c #BA6E7B",
"V  c #A3717D",
"C  c #B7747B",
"Z  c #C34B5E",
"A  c #C14E6E",
"S  c #C74C60",
"D  c #C85667",
"F  c #D25A6C",
"G  c #C35271",
"H  c #C95978",
"J  c #D85977",
"K  c #E1597F",
"L  c #CE606D",
"P  c #C76178",
"I  c #DA6879",
"U  c #987785",
"Y  c #AA6C86",
"T  c #B96C86",
"R  c #BB6684",
"E  c #AF7286",
"W  c #A47C88",
"Q  c #AA7989",
"!  c #BD7D8B",
"~  c #B67684",
"^  c #A97291",
"/  c #B27A95",
"(  c #BE7D98",
")  c #D85E83",
"_  c #EA5F88",
"`  c #C66A82",
"'  c #D96586",
"]  c #D76789",
"[  c #C87885",
"{  c #DC7B8F",
"}  c #C17C94",
"|  c #E5648A",
" . c #E5688D",
".. c #EB648D",
"X. c #EC7D8D",
"o. c #EC6C92",
"O. c #988692",
"+. c #A9878B",
"@. c #BC8184",
"#. c #B6868B",
"$. c #AC8993",
"%. c #A48594",
"&. c #B38D9C",
"*. c #BA8B99",
"=. c #B68894",
"-. c #BC939A",
";. c #B39A9D",
":. c #AF9695",
">. c #AF84A0",
",. c #BE8CA5",
"<. c #AF95A2",
"1. c #B697A5",
"2. c #BA97B5",
"3. c #B9A7B2",
"4. c #BDB8BF",
"5. c #C7888B",
"6. c #D08E8F",
"7. c #CB9D8E",
"8. c #C38D9B",
"9. c #C68795",
"0. c #D58C97",
"q. c #C79D96",
"w. c #C8959C",
"e. c #D79698",
"r. c #E1818D",
"t. c #E4909F",
"y. c #CCA698",
"u. c #D7A49B",
"i. c #C98EA3",
"p. c #C594A2",
"a. c #C39DA3",
"s. c #CA9BA7",
"d. c #C89DAB",
"f. c #D197A4",
"g. c #DC9CAC",
"h. c #D49AA7",
"j. c #CF8EB0",
"k. c #CB9AB4",
"l. c #D39DB1",
"z. c #EC9DAA",
"x. c #C6A6AA",
"c. c #DCA5AC",
"v. c #D4A6A5",
"b. c #CCB3AF",
"n. c #DCB2A2",
"m. c #C8A6B6",
"M. c #D4ABB5",
"N. c #D5AFBA",
"B. c #D8AEB8",
"V. c #D6B4B6",
"C. c #DAB1B4",
"Z. c #D4B1BB",
"A. c #DDB3BC",
"S. c #D9B9BB",
"D. c #E3ABA7",
"F. c #E5A6A9",
"G. c #F0AEAF",
"H. c #E7B0AD",
"J. c #E8ABBB",
"K. c #E4ACB7",
"L. c #F9AEBA",
"P. c #E4B3BE",
"I. c #E7B4B8",
"U. c #F3BBBD",
"Y. c #F1B1BF",
"T. c #FAC5BF",
"R. c #CFAECB",
"E. c #C9B9C3",
"W. c #DBB4C5",
"Q. c #D8BAC7",
"!. c #E9B6C5",
"~. c #E3BCC3",
"^. c #E8B8C4",
"/. c #F4BDC8",
"(. c #E7B9D4",
"). c #E3ABC8",
"_. c #DDC0C5",
"`. c #D8C8D4",
"'. c #DBD2DB",
"]. c #ECCCC5",
"[. c #EDC6CE",
"{. c #E4CACD",
"}. c #E8C8CA",
"|. c #FDCAC9",
" X c #FEC3C5",
".X c #EDD1CE",
"XX c #FAD5CC",
"oX c #E4C5D3",
"OX c #E4CAD4",
"+X c #E7CADB",
"@X c #EACCD9",
"#X c #EAC5D5",
"$X c #F7C5D2",
"%X c #F3CBDD",
"&X c #FDCDD6",
"*X c #EDD1D4",
"=X c #E3D3DC",
"-X c #EDD3DE",
";X c #EBDADC",
":X c #F3D6D3",
">X c #F2D4DF",
",X c #FCD3DA",
"<X c #FCDBD8",
"1X c #FBE1D9",
"2X c #EBD5E2",
"3X c #EDDFEA",
"4X c #EADAE5",
"5X c #F1DBE4",
"6X c #FADAE6",
"7X c #EBE2EB",
"8X c #FFE3E5",
"9X c #F4E9EE",
"0X c #FDEBEE",
"qX c #F4E4E8",
"wX c #FFF1EF",
"eX c #FEE4F2",
"rX c #FDEBF6",
"tX c #FCEEF9",
"yX c #F5F1F5",
"uX c #FDF3F5",
"iX c #F7F2FC",
"pX c #FEF4FC",
"aX c #FEFBFD",
"sX c #FFF8F6",
/* pixels */
"pX(.(.j./ ,XpXiX2Xk.Y E 6.c.<XrXaXaXuXqXeXeXtXpXpX",
"rX6X).( s %XpXiX1.1 v N [ e.I.:XaXaX0X>X2X-X-X4X5X",
"eX-Xj.Y v 6XiX7XU 1 M ~ 6.5.6.v.0XaX5X;X@X+X@X@X2X",
"+X(./ / <.'.iX`., 1 ! 5.F.G.t.@.}.sXqX;X+XOX`.#X5X",
"R.k.^ ,.Q.E.aX3.= i U.T.D.D.6.@.b.aXpXaXuX9X7X=XqX",
"2.>./ l.`.4.iXO.$ v e.v.XXD.e.5.y.aXpXaXaXaXaXaXiX",
"+Xm.Y (.3.'.iXU $ a 5.e.T.|.|.m -.sXuXsXaXaXaXaXtX",
"%Xd.E p.<.pX=X2 & 6 5.T.|.|.F.a +.V.1XqX9XyXiXiX7X",
"[.d.v v qXpXE.& $ #.~ C F.L.[ 0.T.q.C..XqX7X7XtX@X",
"$X&.- @XaX9X<.  - #.f.~ ` X.f t.&Xv.u.}.=X'.4XtXW.",
"/.Y U tX9X5Xb * +.s.f.T ] ' w k  Xf..X;X=X'.3X4XR.",
"L.v _.rX5XQ.* b &.M.l.T ] o.G 4 [ c.0XrX7X=XeXm.+X",
"z.M =X7X-X<.# %.d.*.l.R ' o.H 0 g.^.1XsX@X>X6Xm.9X",
"I C ^.#X@X1.2 m.N.p.i.x ' | | l g.a.b.0XB.&X!.W.pX",
"L r.z.0.s.v p oXN.d.} R  ._ ..) ! C.*X8X!.J.g.$XpX",
"L r.' z g o . m.~.l.} R  .J _ ] ! C.].8X!.g.Y.K.8X",
"I F Z Z e 7 o M.W.8.} l H ) J H T a.T.>XOXW.P./.I.",
"I S Z Z e 9 a A.B.*.9.u j G H x c.8.C.M.{.OX~.<XU.",
"F Z Z e e 9 9.~.A.i.i.u l A A ] J.&.*.M.W.S._.}.|.",
"D Z e e w 7 8.[.M.*.i.y f G z ` P.a.> $.V.S.{.{.XX",
"e 0 q 9 7 6 v.~.$.*.E t l h h ` #.+.: 3 c x.;.;.V.",
"w 0 9 9 5 a ^.C.1./ 6 t k f g k w.3.: 3 > :..Xn > ",
"e w w r 6 ~ ~.W.U X   @ t t t 6 v ,X+.& +.y.T.1X:.",
"e w q 9 5 w.[.Z.O O + + @ @ . . = M.b.> y.n.y.y.XX",
"w q 7 m N K.[.+.  < < ; % - * + X W ;.8 y.y.q.8 m "
};
